<svg width="32" height="32" viewBox="0 0 32 32" fill="none" xmlns="http://www.w3.org/2000/svg">
<path d="M16 32C24.8366 32 32 24.8366 32 16C32 7.16344 24.8366 0 16 0C7.16344 0 0 7.16344 0 16C0 24.8366 7.16344 32 16 32Z" fill="#FFDA44"/>
<path d="M15.9999 32C20.8493 32 25.1945 29.8423 28.1287 26.4348H3.87109C6.80528 29.8423 11.1505 32 15.9999 32Z" fill="#338AF3"/>
<path d="M32 16C32 7.1635 24.8365 0 16 0C7.1635 0 0 7.1635 0 16C0 17.4442 0.1925 18.8431 0.551188 20.1739H31.4489C31.8075 18.8431 32 17.4442 32 16Z" fill="#338AF3"/>
<path d="M1.27148 22.2609C1.57992 22.9856 1.94048 23.6826 2.34805 24.3478H29.6513C30.0589 23.6826 30.4194 22.9856 30.728 22.2609H1.27148Z" fill="#338AF3"/>
<path d="M7.33205 10.0915L4.20605 8.71183L7.33205 7.33221L8.71162 4.20627L10.0912 7.33221L13.2171 8.71183L10.0912 10.0915L8.71162 13.2174L7.33205 10.0915Z" fill="#F0F0F0"/>
<path d="M8.71182 5.92917L9.56376 7.85973L11.4944 8.7118L9.56376 9.5638L8.71182 11.4944L7.85976 9.5638L5.9292 8.7118L7.85976 7.85973L8.71182 5.92917Z" fill="#D80027"/>
</svg>
