<svg width="32" height="32" viewBox="0 0 32 32" fill="none" xmlns="http://www.w3.org/2000/svg">
<g clip-path="url(#clip0)">
<path d="M16.0001 31.9978C24.8354 31.9978 31.9978 24.8354 31.9978 16.0001C31.9978 7.16484 24.8354 0.00244141 16.0001 0.00244141C7.16484 0.00244141 0.00244141 7.16484 0.00244141 16.0001C0.00244141 24.8354 7.16484 31.9978 16.0001 31.9978Z" fill="#F0F0F0"/>
<path d="M2.14554 8.00119C1.42346 9.25172 0.890828 10.5591 0.536133 11.8908L27.2903 27.3375C28.2663 26.3644 29.1323 25.2493 29.8542 23.9988L2.14554 8.00119Z" fill="black"/>
<path d="M23.9993 2.14561C17.5982 -1.55004 9.70551 -0.318322 4.70996 4.66253L31.4642 20.1091C33.28 13.2925 30.4003 5.84131 23.9993 2.14561Z" fill="#FFDA44"/>
<path d="M8.00138 29.8544C14.4024 33.55 22.2952 32.3183 27.2907 27.3375L0.536408 11.8908C-1.27932 18.7075 1.60024 26.1587 8.00138 29.8544Z" fill="#FFDA44"/>
<path d="M20.5211 14.2611C20.5211 16.758 18.4969 18.7822 16 18.7822C13.503 18.7822 11.4789 16.758 11.4789 14.2611C11.4789 13.4826 11.6757 12.75 12.0223 12.1104C11.0412 13.1138 10.4355 14.4858 10.4355 16C10.4355 19.0731 12.9268 21.5644 16 21.5644C19.0732 21.5644 21.5644 19.0732 21.5644 16C21.5644 14.4858 20.9588 13.1138 19.9776 12.1104C20.3243 12.7501 20.5211 13.4826 20.5211 14.2611Z" fill="#D80027"/>
<path d="M17.0432 9.04456H14.9565V19.4778H17.0432V9.04456Z" fill="#D80027"/>
<path d="M19.4779 11.1311H12.5225C12.5225 11.6113 12.9408 12.0006 13.4209 12.0006H13.3919C13.3919 12.4808 13.7812 12.87 14.2614 12.87C14.2614 13.3502 14.6507 13.7395 15.1308 13.7395H16.8697C17.3499 13.7395 17.7391 13.3502 17.7391 12.87C18.2193 12.87 18.6086 12.4808 18.6086 12.0006H18.5797C19.0597 12.0005 19.4779 11.6114 19.4779 11.1311Z" fill="#D80027"/>
<path d="M20.8691 20.1734H11.1313V22.26H20.8691V20.1734Z" fill="#D80027"/>
<path d="M22.2602 20.869H18.0869V22.9556H22.2602V20.869Z" fill="#D80027"/>
<path d="M13.9135 20.869H9.74023V22.9556H13.9135V20.869Z" fill="#D80027"/>
</g>
<defs>
<clipPath id="clip0">
<rect width="32" height="32" fill="white"/>
</clipPath>
</defs>
</svg>
