<svg width="32" height="32" viewBox="0 0 32 32" fill="none" xmlns="http://www.w3.org/2000/svg">
<path d="M16 32C24.8366 32 32 24.8366 32 16C32 7.16344 24.8366 0 16 0C7.16344 0 0 7.16344 0 16C0 24.8366 7.16344 32 16 32Z" fill="#F0F0F0"/>
<path d="M25.7423 3.30637C20.0141 -1.1015 11.9861 -1.1015 6.25781 3.30631L16.0001 13.0486L25.7423 3.30637Z" fill="#D80027"/>
<path d="M15.9999 18.9515L6.25781 28.6936C11.9861 33.1015 20.0141 33.1015 25.7423 28.6936L16.0001 18.9514L15.9999 18.9515Z" fill="#D80027"/>
<path d="M13.0486 16L3.30639 6.25772C-1.10148 11.986 -1.10148 20.014 3.30639 25.7422L13.0486 16Z" fill="#6DA544"/>
<path d="M18.9517 16L28.6938 25.7422C33.1017 20.014 33.1017 11.986 28.6938 6.25772L18.9517 16Z" fill="#6DA544"/>
<path d="M16 22.9565C19.8419 22.9565 22.9565 19.842 22.9565 16C22.9565 12.1581 19.8419 9.04352 16 9.04352C12.158 9.04352 9.04346 12.1581 9.04346 16C9.04346 19.842 12.158 22.9565 16 22.9565Z" fill="#F0F0F0"/>
<path d="M15.9997 11.1304L16.6021 12.1739H17.8071L17.2046 13.2174L17.8071 14.2609H16.6021L15.9997 15.3044L15.3973 14.2609H14.1924L14.7948 13.2174L14.1924 12.1739H15.3973L15.9997 11.1304Z" fill="#D80027"/>
<path d="M12.9377 16L13.5402 17.0435H14.7451L14.1426 18.0869L14.7451 19.1304H13.5402L12.9377 20.1739L12.3352 19.1304H11.1304L11.7328 18.0869L11.1304 17.0435H12.3352L12.9377 16Z" fill="#D80027"/>
<path d="M19.0623 16L19.6647 17.0435H20.8696L20.2671 18.0869L20.8696 19.1304H19.6647L19.0623 20.1739L18.4598 19.1304H17.2549L17.8573 18.0869L17.2549 17.0435H18.4598L19.0623 16Z" fill="#D80027"/>
</svg>
