<svg width="32" height="32" viewBox="0 0 32 32" fill="none" xmlns="http://www.w3.org/2000/svg">
<path d="M16 32C24.8366 32 32 24.8366 32 16C32 7.16344 24.8366 0 16 0C7.16344 0 0 7.16344 0 16C0 24.8366 7.16344 32 16 32Z" fill="#0052B4"/>
<path d="M16 32C24.8366 32 32 24.8366 32 16C32 7.16344 24.8366 0 16 0C7.16344 0 0 7.16344 0 16C0 24.8366 7.16344 32 16 32Z" fill="#FFDA44"/>
<path d="M16.0001 0C7.63235 0 0.766223 6.42381 0.0610352 14.6087H31.9392C31.234 6.42381 24.3678 0 16.0001 0Z" fill="#0052B4"/>
<path d="M16.0001 32C24.3678 32 31.234 25.5762 31.9392 17.3913H0.0610352C0.766223 25.5762 7.63235 32 16.0001 32Z" fill="#0052B4"/>
<path d="M13.2173 21.5652L11.4245 22.4085L12.3791 24.1449L10.4323 23.7724L10.1856 25.7391L8.82958 24.2927L7.47358 25.7391L7.22689 23.7724L5.28002 24.1448L6.23477 22.4085L4.44189 21.5652L6.23483 20.7219L5.28002 18.9856L7.22683 19.358L7.47364 17.3913L8.82958 18.8377L10.1857 17.3913L10.4323 19.358L12.3792 18.9856L11.4245 20.7219L13.2173 21.5652Z" fill="#F0F0F0"/>
</svg>
