<svg width="32" height="32" viewBox="0 0 32 32" fill="none" xmlns="http://www.w3.org/2000/svg">
<path d="M16 32C24.8366 32 32 24.8366 32 16C32 7.16344 24.8366 0 16 0C7.16344 0 0 7.16344 0 16C0 24.8366 7.16344 32 16 32Z" fill="#F0F0F0"/>
<path d="M16 11.8261H31.4488C31.0476 10.3377 30.4379 8.93513 29.6516 7.65213H16V11.8261Z" fill="#338AF3"/>
<path d="M6.04044 28.5217H25.96C27.4202 27.3587 28.6724 25.9461 29.6518 24.3478H2.34863C3.32807 25.9461 4.58032 27.3587 6.04044 28.5217Z" fill="#338AF3"/>
<path d="M16 0C16 1.39131 16 3.47825 16 3.47825H25.9598C23.2267 1.3015 19.7656 0 16 0Z" fill="#338AF3"/>
<path d="M16 11.8261H31.4488C31.0476 10.3377 30.4379 8.93513 29.6516 7.65213H16V11.8261Z" fill="#338AF3"/>
<path d="M0 16C0 17.4442 0.1925 18.8431 0.551188 20.1739H31.4489C31.8075 18.8431 32 17.4442 32 16H0Z" fill="#338AF3"/>
<path d="M13.913 9.36379L11.9589 10.283L12.9994 12.1755L10.8776 11.7696L10.6087 13.913L9.13082 12.3365L7.65282 13.913L7.38401 11.7696L5.26213 12.1754L6.30263 10.2829L4.34863 9.36379L6.3027 8.44473L5.26213 6.55223L7.38394 6.9581L7.65288 4.81467L9.13082 6.39117L10.6088 4.81467L10.8776 6.9581L12.9995 6.55223L11.9589 8.44479L13.913 9.36379Z" fill="#FFDA44"/>
</svg>
