<svg width="25" height="25" viewBox="0 0 25 25" fill="none" xmlns="http://www.w3.org/2000/svg">
<path d="M18.7489 0.00520167L15.507 0C11.8648 0 9.51105 2.41487 9.51105 6.15253V8.98926H6.25146C5.96979 8.98926 5.7417 9.21762 5.7417 9.49929V13.6094C5.7417 13.8911 5.97005 14.1191 6.25146 14.1191H9.51105V24.4902C9.51105 24.7719 9.73914 25 10.0208 25H14.2737C14.5553 25 14.7834 24.7716 14.7834 24.4902V14.1191H18.5946C18.8763 14.1191 19.1044 13.8911 19.1044 13.6094L19.106 9.49929C19.106 9.36404 19.0521 9.23452 18.9567 9.13881C18.8612 9.0431 18.7312 8.98926 18.5959 8.98926H14.7834V6.58453C14.7834 5.42872 15.0588 4.84197 16.5644 4.84197L18.7483 4.84119C19.0297 4.84119 19.2578 4.61284 19.2578 4.33143V0.514965C19.2578 0.233815 19.03 0.00572184 18.7489 0.00520167Z" fill="white"/>
</svg>
