<svg width="25" height="25" viewBox="0 0 25 25" fill="none" xmlns="http://www.w3.org/2000/svg">
<path d="M25 15.2018V24.4445H19.6417V15.8209C19.6417 13.6545 18.8667 12.1761 16.9271 12.1761C15.4466 12.1761 14.5655 13.1725 14.1778 14.1363C14.0365 14.4808 14.0001 14.9604 14.0001 15.4427V24.4445H8.63997C8.63997 24.4445 8.71216 9.83889 8.63997 8.32564H13.9996V10.6104C13.9887 10.6275 13.9746 10.6459 13.9643 10.6625H13.9996V10.6104C14.7116 9.51369 15.9833 7.94696 18.8298 7.94696C22.3563 7.9469 25 10.2508 25 15.2018ZM3.03307 0.555542C1.19938 0.555542 0 1.7583 0 3.33996C0 4.88715 1.16468 6.12641 2.96193 6.12641H2.99773C4.86693 6.12641 6.02941 4.88739 6.02941 3.33996C5.99418 1.7583 4.86693 0.555542 3.03307 0.555542ZM0.318344 24.4445H5.67642V8.32564H0.318344V24.4445Z" fill="white"/>
</svg>
