<svg width="25" height="25" viewBox="0 0 25 25" fill="none" xmlns="http://www.w3.org/2000/svg">
<g clip-path="url(#clip0)">
<path d="M25 4.74906C24.0798 5.15678 23.0925 5.43329 22.0552 5.55674C23.1144 4.92247 23.9252 3.91642 24.3094 2.72132C23.3159 3.3087 22.2192 3.73521 21.0507 3.96642C20.1149 2.96818 18.7839 2.34641 17.3076 2.34641C14.4753 2.34641 12.1789 4.64285 12.1789 7.47357C12.1789 7.87504 12.2242 8.26716 12.3117 8.64212C8.05 8.42806 4.27104 6.38627 1.74183 3.2837C1.29971 4.03983 1.0482 4.92087 1.0482 5.86136C1.0482 7.64073 1.95429 9.21074 3.32905 10.1293C2.48856 10.1012 1.69808 9.86998 1.00605 9.48566V9.54971C1.00605 12.0336 2.77447 14.1067 5.11932 14.5785C4.68971 14.6941 4.23668 14.7581 3.76802 14.7581C3.43685 14.7581 3.11659 14.7253 2.80257 14.6628C3.45556 16.7015 5.34898 18.184 7.59232 18.2247C5.83795 19.5994 3.62586 20.4165 1.2232 20.4165C0.809232 20.4165 0.401471 20.3915 0 20.3462C2.26989 21.8037 4.96471 22.6536 7.86103 22.6536C17.2952 22.6536 22.452 14.8394 22.452 8.06254L22.4349 7.39861C23.4424 6.67994 24.3141 5.777 25 4.74906Z" fill="#27CBFF"/>
</g>
<defs>
<clipPath id="clip0">
<rect width="25" height="25" transform="matrix(1 0 0 -1 0 25)" fill="white"/>
</clipPath>
</defs>
</svg>
